<svg width="186" height="28" viewBox="0 0 186 28" fill="none" xmlns="http://www.w3.org/2000/svg">
<path d="M12.4922 19.2578V22H3.90234V19.2578H12.4922ZM5.03906 4.9375V22H1.52344V4.9375H5.03906ZM21.1406 19.1406V13.4922C21.1406 13.0859 21.0742 12.7383 20.9414 12.4492C20.8086 12.1523 20.6016 11.9219 20.3203 11.7578C20.0469 11.5938 19.6914 11.5117 19.2539 11.5117C18.8789 11.5117 18.5547 11.5781 18.2812 11.7109C18.0078 11.8359 17.7969 12.0195 17.6484 12.2617C17.5 12.4961 17.4258 12.7734 17.4258 13.0938H14.0508C14.0508 12.5547 14.1758 12.043 14.4258 11.5586C14.6758 11.0742 15.0391 10.6484 15.5156 10.2812C15.9922 9.90625 16.5586 9.61328 17.2148 9.40234C17.8789 9.19141 18.6211 9.08594 19.4414 9.08594C20.4258 9.08594 21.3008 9.25 22.0664 9.57812C22.832 9.90625 23.4336 10.3984 23.8711 11.0547C24.3164 11.7109 24.5391 12.5312 24.5391 13.5156V18.9414C24.5391 19.6367 24.582 20.207 24.668 20.6523C24.7539 21.0898 24.8789 21.4727 25.043 21.8008V22H21.6328C21.4688 21.6562 21.3438 21.2266 21.2578 20.7109C21.1797 20.1875 21.1406 19.6641 21.1406 19.1406ZM21.5859 14.2773L21.6094 16.1875H19.7227C19.2773 16.1875 18.8906 16.2383 18.5625 16.3398C18.2344 16.4414 17.9648 16.5859 17.7539 16.7734C17.543 16.9531 17.3867 17.1641 17.2852 17.4062C17.1914 17.6484 17.1445 17.9141 17.1445 18.2031C17.1445 18.4922 17.2109 18.7539 17.3438 18.9883C17.4766 19.2148 17.668 19.3945 17.918 19.5273C18.168 19.6523 18.4609 19.7148 18.7969 19.7148C19.3047 19.7148 19.7461 19.6133 20.1211 19.4102C20.4961 19.207 20.7852 18.957 20.9883 18.6602C21.1992 18.3633 21.3086 18.082 21.3164 17.8164L22.207 19.2461C22.082 19.5664 21.9102 19.8984 21.6914 20.2422C21.4805 20.5859 21.2109 20.9102 20.8828 21.2148C20.5547 21.5117 20.1602 21.7578 19.6992 21.9531C19.2383 22.1406 18.6914 22.2344 18.0586 22.2344C17.2539 22.2344 16.5234 22.0742 15.8672 21.7539C15.2188 21.4258 14.7031 20.9766 14.3203 20.4062C13.9453 19.8281 13.7578 19.1719 13.7578 18.4375C13.7578 17.7734 13.8828 17.1836 14.1328 16.668C14.3828 16.1523 14.75 15.7188 15.2344 15.3672C15.7266 15.0078 16.3398 14.7383 17.0742 14.5586C17.8086 14.3711 18.6602 14.2773 19.6289 14.2773H21.5859ZM30.4453 12.0273V22H27.0703V9.32031H30.2344L30.4453 12.0273ZM29.9531 15.2148H29.0391C29.0391 14.2773 29.1602 13.4336 29.4023 12.6836C29.6445 11.9258 29.9844 11.2812 30.4219 10.75C30.8594 10.2109 31.3789 9.80078 31.9805 9.51953C32.5898 9.23047 33.2695 9.08594 34.0195 9.08594C34.6133 9.08594 35.1562 9.17188 35.6484 9.34375C36.1406 9.51562 36.5625 9.78906 36.9141 10.1641C37.2734 10.5391 37.5469 11.0352 37.7344 11.6523C37.9297 12.2695 38.0273 13.0234 38.0273 13.9141V22H34.6289V13.9023C34.6289 13.3398 34.5508 12.9023 34.3945 12.5898C34.2383 12.2773 34.0078 12.0586 33.7031 11.9336C33.4062 11.8008 33.0391 11.7344 32.6016 11.7344C32.1484 11.7344 31.7539 11.8242 31.418 12.0039C31.0898 12.1836 30.8164 12.4336 30.5977 12.7539C30.3867 13.0664 30.2266 13.4336 30.1172 13.8555C30.0078 14.2773 29.9531 14.7305 29.9531 15.2148ZM48.082 19.2344V4H51.4805V22H48.4219L48.082 19.2344ZM40.0664 15.8125V15.5664C40.0664 14.5977 40.1758 13.7188 40.3945 12.9297C40.6133 12.1328 40.9336 11.4492 41.3555 10.8789C41.7773 10.3086 42.2969 9.86719 42.9141 9.55469C43.5312 9.24219 44.2344 9.08594 45.0234 9.08594C45.7656 9.08594 46.4141 9.24219 46.9688 9.55469C47.5312 9.86719 48.0078 10.3125 48.3984 10.8906C48.7969 11.4609 49.1172 12.1367 49.3594 12.918C49.6016 13.6914 49.7773 14.5391 49.8867 15.4609V16C49.7773 16.8828 49.6016 17.7031 49.3594 18.4609C49.1172 19.2188 48.7969 19.8828 48.3984 20.4531C48.0078 21.0156 47.5312 21.4531 46.9688 21.7656C46.4062 22.0781 45.75 22.2344 45 22.2344C44.2109 22.2344 43.5078 22.0742 42.8906 21.7539C42.2812 21.4336 41.7656 20.9844 41.3438 20.4062C40.9297 19.8281 40.6133 19.1484 40.3945 18.3672C40.1758 17.5859 40.0664 16.7344 40.0664 15.8125ZM43.4414 15.5664V15.8125C43.4414 16.3359 43.4805 16.8242 43.5586 17.2773C43.6445 17.7305 43.7812 18.1328 43.9688 18.4844C44.1641 18.8281 44.4141 19.0977 44.7188 19.293C45.0312 19.4805 45.4102 19.5742 45.8555 19.5742C46.4336 19.5742 46.9102 19.4453 47.2852 19.1875C47.6602 18.9219 47.9453 18.5586 48.1406 18.0977C48.3438 17.6367 48.4609 17.1055 48.4922 16.5039V14.9688C48.4688 14.4766 48.3984 14.0352 48.2812 13.6445C48.1719 13.2461 48.0078 12.9062 47.7891 12.625C47.5781 12.3438 47.3125 12.125 46.9922 11.9688C46.6797 11.8125 46.3086 11.7344 45.8789 11.7344C45.4414 11.7344 45.0664 11.8359 44.7539 12.0391C44.4414 12.2344 44.1875 12.5039 43.9922 12.8477C43.8047 13.1914 43.6641 13.5977 43.5703 14.0664C43.4844 14.5273 43.4414 15.0273 43.4414 15.5664ZM57.6797 9.32031V22H54.293V9.32031H57.6797ZM54.082 6.01562C54.082 5.52344 54.2539 5.11719 54.5977 4.79688C54.9414 4.47656 55.4023 4.31641 55.9805 4.31641C56.5508 4.31641 57.0078 4.47656 57.3516 4.79688C57.7031 5.11719 57.8789 5.52344 57.8789 6.01562C57.8789 6.50781 57.7031 6.91406 57.3516 7.23438C57.0078 7.55469 56.5508 7.71484 55.9805 7.71484C55.4023 7.71484 54.9414 7.55469 54.5977 7.23438C54.2539 6.91406 54.082 6.50781 54.082 6.01562ZM63.7734 12.0273V22H60.3984V9.32031H63.5625L63.7734 12.0273ZM63.2812 15.2148H62.3672C62.3672 14.2773 62.4883 13.4336 62.7305 12.6836C62.9727 11.9258 63.3125 11.2812 63.75 10.75C64.1875 10.2109 64.707 9.80078 65.3086 9.51953C65.918 9.23047 66.5977 9.08594 67.3477 9.08594C67.9414 9.08594 68.4844 9.17188 68.9766 9.34375C69.4688 9.51562 69.8906 9.78906 70.2422 10.1641C70.6016 10.5391 70.875 11.0352 71.0625 11.6523C71.2578 12.2695 71.3555 13.0234 71.3555 13.9141V22H67.957V13.9023C67.957 13.3398 67.8789 12.9023 67.7227 12.5898C67.5664 12.2773 67.3359 12.0586 67.0312 11.9336C66.7344 11.8008 66.3672 11.7344 65.9297 11.7344C65.4766 11.7344 65.082 11.8242 64.7461 12.0039C64.418 12.1836 64.1445 12.4336 63.9258 12.7539C63.7148 13.0664 63.5547 13.4336 63.4453 13.8555C63.3359 14.2773 63.2812 14.7305 63.2812 15.2148ZM81.9492 9.32031H85.0078V21.5781C85.0078 22.7344 84.75 23.7148 84.2344 24.5195C83.7266 25.332 83.0156 25.9453 82.1016 26.3594C81.1875 26.7812 80.125 26.9922 78.9141 26.9922C78.3828 26.9922 77.8203 26.9219 77.2266 26.7812C76.6406 26.6406 76.0781 26.4219 75.5391 26.125C75.0078 25.8281 74.5625 25.4531 74.2031 25L75.6914 23.0078C76.082 23.4609 76.5352 23.8125 77.0508 24.0625C77.5664 24.3203 78.1367 24.4492 78.7617 24.4492C79.3711 24.4492 79.8867 24.3359 80.3086 24.1094C80.7305 23.8906 81.0547 23.5664 81.2812 23.1367C81.5078 22.7148 81.6211 22.2031 81.6211 21.6016V12.25L81.9492 9.32031ZM73.418 15.8125V15.5664C73.418 14.5977 73.5352 13.7188 73.7695 12.9297C74.0117 12.1328 74.3516 11.4492 74.7891 10.8789C75.2344 10.3086 75.7734 9.86719 76.4062 9.55469C77.0391 9.24219 77.7539 9.08594 78.5508 9.08594C79.3945 9.08594 80.1016 9.24219 80.6719 9.55469C81.2422 9.86719 81.7109 10.3125 82.0781 10.8906C82.4453 11.4609 82.7305 12.1367 82.9336 12.918C83.1445 13.6914 83.3086 14.5391 83.4258 15.4609V16C83.3086 16.8828 83.1328 17.7031 82.8984 18.4609C82.6641 19.2188 82.3555 19.8828 81.9727 20.4531C81.5898 21.0156 81.1133 21.4531 80.543 21.7656C79.9805 22.0781 79.3086 22.2344 78.5273 22.2344C77.7461 22.2344 77.0391 22.0742 76.4062 21.7539C75.7812 21.4336 75.2461 20.9844 74.8008 20.4062C74.3555 19.8281 74.0117 19.1484 73.7695 18.3672C73.5352 17.5859 73.418 16.7344 73.418 15.8125ZM76.793 15.5664V15.8125C76.793 16.3359 76.8438 16.8242 76.9453 17.2773C77.0469 17.7305 77.2031 18.1328 77.4141 18.4844C77.6328 18.8281 77.9023 19.0977 78.2227 19.293C78.5508 19.4805 78.9375 19.5742 79.3828 19.5742C80 19.5742 80.5039 19.4453 80.8945 19.1875C81.2852 18.9219 81.5781 18.5586 81.7734 18.0977C81.9688 17.6367 82.082 17.1055 82.1133 16.5039V14.9688C82.0977 14.4766 82.0312 14.0352 81.9141 13.6445C81.7969 13.2461 81.6328 12.9062 81.4219 12.625C81.2109 12.3438 80.9375 12.125 80.6016 11.9688C80.2656 11.8125 79.8672 11.7344 79.4062 11.7344C78.9609 11.7344 78.5742 11.8359 78.2461 12.0391C77.9258 12.2344 77.6562 12.5039 77.4375 12.8477C77.2266 13.1914 77.0664 13.5977 76.957 14.0664C76.8477 14.5273 76.793 15.0273 76.793 15.5664ZM94.5234 14.5117H90.1406L90.1172 12.0977H93.7969C94.4453 12.0977 94.9766 12.0156 95.3906 11.8516C95.8047 11.6797 96.1133 11.4336 96.3164 11.1133C96.5273 10.7852 96.6328 10.3867 96.6328 9.91797C96.6328 9.38672 96.5312 8.95703 96.3281 8.62891C96.1328 8.30078 95.8242 8.0625 95.4023 7.91406C94.9883 7.76562 94.4531 7.69141 93.7969 7.69141H91.3594V22H87.8438V4.9375H93.7969C94.7891 4.9375 95.6758 5.03125 96.457 5.21875C97.2461 5.40625 97.9141 5.69141 98.4609 6.07422C99.0078 6.45703 99.4258 6.94141 99.7148 7.52734C100.004 8.10547 100.148 8.79297 100.148 9.58984C100.148 10.293 99.9883 10.9414 99.668 11.5352C99.3555 12.1289 98.8594 12.6133 98.1797 12.9883C97.5078 13.3633 96.6289 13.5703 95.543 13.6094L94.5234 14.5117ZM94.3711 22H89.1797L90.5508 19.2578H94.3711C94.9883 19.2578 95.4922 19.1602 95.8828 18.9648C96.2734 18.7617 96.5625 18.4883 96.75 18.1445C96.9375 17.8008 97.0312 17.4062 97.0312 16.9609C97.0312 16.4609 96.9453 16.0273 96.7734 15.6602C96.6094 15.293 96.3438 15.0117 95.9766 14.8164C95.6094 14.6133 95.125 14.5117 94.5234 14.5117H91.1367L91.1602 12.0977H95.3789L96.1875 13.0469C97.2266 13.0312 98.0625 13.2148 98.6953 13.5977C99.3359 13.9727 99.8008 14.4609 100.09 15.0625C100.387 15.6641 100.535 16.3086 100.535 16.9961C100.535 18.0898 100.297 19.0117 99.8203 19.7617C99.3438 20.5039 98.6445 21.0625 97.7227 21.4375C96.8086 21.8125 95.6914 22 94.3711 22ZM110.461 18.9648V9.32031H113.836V22H110.66L110.461 18.9648ZM110.836 16.3633L111.832 16.3398C111.832 17.1836 111.734 17.9688 111.539 18.6953C111.344 19.4141 111.051 20.0391 110.66 20.5703C110.27 21.0938 109.777 21.5039 109.184 21.8008C108.59 22.0898 107.891 22.2344 107.086 22.2344C106.469 22.2344 105.898 22.1484 105.375 21.9766C104.859 21.7969 104.414 21.5195 104.039 21.1445C103.672 20.7617 103.383 20.2734 103.172 19.6797C102.969 19.0781 102.867 18.3555 102.867 17.5117V9.32031H106.242V17.5352C106.242 17.9102 106.285 18.2266 106.371 18.4844C106.465 18.7422 106.594 18.9531 106.758 19.1172C106.922 19.2812 107.113 19.3984 107.332 19.4688C107.559 19.5391 107.809 19.5742 108.082 19.5742C108.777 19.5742 109.324 19.4336 109.723 19.1523C110.129 18.8711 110.414 18.4883 110.578 18.0039C110.75 17.5117 110.836 16.9648 110.836 16.3633ZM119.977 9.32031V22H116.59V9.32031H119.977ZM116.379 6.01562C116.379 5.52344 116.551 5.11719 116.895 4.79688C117.238 4.47656 117.699 4.31641 118.277 4.31641C118.848 4.31641 119.305 4.47656 119.648 4.79688C120 5.11719 120.176 5.52344 120.176 6.01562C120.176 6.50781 120 6.91406 119.648 7.23438C119.305 7.55469 118.848 7.71484 118.277 7.71484C117.699 7.71484 117.238 7.55469 116.895 7.23438C116.551 6.91406 116.379 6.50781 116.379 6.01562ZM126.328 4V22H122.941V4H126.328ZM136.605 19.2344V4H140.004V22H136.945L136.605 19.2344ZM128.59 15.8125V15.5664C128.59 14.5977 128.699 13.7188 128.918 12.9297C129.137 12.1328 129.457 11.4492 129.879 10.8789C130.301 10.3086 130.82 9.86719 131.438 9.55469C132.055 9.24219 132.758 9.08594 133.547 9.08594C134.289 9.08594 134.938 9.24219 135.492 9.55469C136.055 9.86719 136.531 10.3125 136.922 10.8906C137.32 11.4609 137.641 12.1367 137.883 12.918C138.125 13.6914 138.301 14.5391 138.41 15.4609V16C138.301 16.8828 138.125 17.7031 137.883 18.4609C137.641 19.2188 137.32 19.8828 136.922 20.4531C136.531 21.0156 136.055 21.4531 135.492 21.7656C134.93 22.0781 134.273 22.2344 133.523 22.2344C132.734 22.2344 132.031 22.0742 131.414 21.7539C130.805 21.4336 130.289 20.9844 129.867 20.4062C129.453 19.8281 129.137 19.1484 128.918 18.3672C128.699 17.5859 128.59 16.7344 128.59 15.8125ZM131.965 15.5664V15.8125C131.965 16.3359 132.004 16.8242 132.082 17.2773C132.168 17.7305 132.305 18.1328 132.492 18.4844C132.688 18.8281 132.938 19.0977 133.242 19.293C133.555 19.4805 133.934 19.5742 134.379 19.5742C134.957 19.5742 135.434 19.4453 135.809 19.1875C136.184 18.9219 136.469 18.5586 136.664 18.0977C136.867 17.6367 136.984 17.1055 137.016 16.5039V14.9688C136.992 14.4766 136.922 14.0352 136.805 13.6445C136.695 13.2461 136.531 12.9062 136.312 12.625C136.102 12.3438 135.836 12.125 135.516 11.9688C135.203 11.8125 134.832 11.7344 134.402 11.7344C133.965 11.7344 133.59 11.8359 133.277 12.0391C132.965 12.2344 132.711 12.5039 132.516 12.8477C132.328 13.1914 132.188 13.5977 132.094 14.0664C132.008 14.5273 131.965 15.0273 131.965 15.5664ZM148.477 22.2344C147.492 22.2344 146.609 22.0781 145.828 21.7656C145.047 21.4453 144.383 21.0039 143.836 20.4414C143.297 19.8789 142.883 19.2266 142.594 18.4844C142.305 17.7344 142.16 16.9375 142.16 16.0938V15.625C142.16 14.6641 142.297 13.7852 142.57 12.9883C142.844 12.1914 143.234 11.5 143.742 10.9141C144.258 10.3281 144.883 9.87891 145.617 9.56641C146.352 9.24609 147.18 9.08594 148.102 9.08594C149 9.08594 149.797 9.23438 150.492 9.53125C151.188 9.82812 151.77 10.25 152.238 10.7969C152.715 11.3438 153.074 12 153.316 12.7656C153.559 13.5234 153.68 14.3672 153.68 15.2969V16.7031H143.602V14.4531H150.363V14.1953C150.363 13.7266 150.277 13.3086 150.105 12.9414C149.941 12.5664 149.691 12.2695 149.355 12.0508C149.02 11.832 148.59 11.7227 148.066 11.7227C147.621 11.7227 147.238 11.8203 146.918 12.0156C146.598 12.2109 146.336 12.4844 146.133 12.8359C145.938 13.1875 145.789 13.6016 145.688 14.0781C145.594 14.5469 145.547 15.0625 145.547 15.625V16.0938C145.547 16.6016 145.617 17.0703 145.758 17.5C145.906 17.9297 146.113 18.3008 146.379 18.6133C146.652 18.9258 146.98 19.168 147.363 19.3398C147.754 19.5117 148.195 19.5977 148.688 19.5977C149.297 19.5977 149.863 19.4805 150.387 19.2461C150.918 19.0039 151.375 18.6406 151.758 18.1562L153.398 19.9375C153.133 20.3203 152.77 20.6875 152.309 21.0391C151.855 21.3906 151.309 21.6797 150.668 21.9062C150.027 22.125 149.297 22.2344 148.477 22.2344ZM158.977 12.0859V22H155.602V9.32031H158.777L158.977 12.0859ZM162.797 9.23828L162.738 12.3672C162.574 12.3438 162.375 12.3242 162.141 12.3086C161.914 12.2852 161.707 12.2734 161.52 12.2734C161.043 12.2734 160.629 12.3359 160.277 12.4609C159.934 12.5781 159.645 12.7539 159.41 12.9883C159.184 13.2227 159.012 13.5078 158.895 13.8438C158.785 14.1797 158.723 14.5625 158.707 14.9922L158.027 14.7812C158.027 13.9609 158.109 13.207 158.273 12.5195C158.438 11.8242 158.676 11.2188 158.988 10.7031C159.309 10.1875 159.699 9.78906 160.16 9.50781C160.621 9.22656 161.148 9.08594 161.742 9.08594C161.93 9.08594 162.121 9.10156 162.316 9.13281C162.512 9.15625 162.672 9.19141 162.797 9.23828Z" fill="#373737"/>
<rect x="170" y="5" width="5.33334" height="16.8974" fill="#4480F3"/>
<rect x="175.333" y="10.0692" width="5.33334" height="11.8282" fill="#4480F3"/>
<rect x="180.667" y="15.1385" width="5.33334" height="6.75897" fill="#4480F3"/>
</svg>
